<?xml version="1.0" encoding="UTF-8" standalone="no"?>
<svg
   width="300"
   height="300"
   viewBox="0 0 300 300"
   role="img"
   aria-label="PostgreSQL + pgAdmin icon"
   version="1.1"
   id="svg10468"
   xmlns="http://www.w3.org/2000/svg"
   xmlns:svg="http://www.w3.org/2000/svg">
  <defs
     id="defs10472">
    <rect
       x="-655.42004"
       y="78.499901"
       width="212.53835"
       height="40.972229"
       id="rect12038" />
    <rect
       x="-653.73236"
       y="33.207096"
       width="188.84233"
       height="44.707279"
       id="rect11880" />
  </defs>
  <!-- Background -->
  <!-- Red border ≈ 5% (15px) -->
  <!-- Official PostgreSQL elephant -->
  <!-- Text stack: ~80% width => 240px -->
  <path
     style="display:inline;fill:#ffffff;stroke-width:0.584226"
     d="m 26.262827,283.74328 c -2.98262,-1.14919 -5.90163,-3.22737 -7.527804,-5.3594 -3.471804,-4.55177 -3.253549,4.10154 -3.247328,-128.74945 l 0.0057,-121.8837 1.370625,-2.943389 c 1.793039,-3.850516 6.10011,-7.629522 9.981752,-8.757946 2.617592,-0.760955 18.250539,-0.851419 124.240328,-0.718948 l 121.24595,0.151539 3.43886,1.758745 c 2.13328,1.091026 4.16358,2.708902 5.34772,4.261419 3.95591,5.186536 3.69149,-4.028112 3.69149,128.64391 0,104.92331 -0.11064,120.51103 -0.87364,123.0803 -1.13695,3.82855 -4.9395,8.13808 -8.74383,9.90961 l -2.94339,1.37063 -122.10321,-0.0387 C 58.164474,284.43865 27.603732,284.25994 26.262827,283.74329 Z"
     id="path11135" />
  <rect
     x="7.5"
     y="7.5"
     width="285"
     height="285"
     rx="24"
     fill="none"
     stroke="#d32f2f"
     stroke-width="15"
     id="rect10448"
     style="display:inline" />
  <g
     id="g11022"
     transform="matrix(0.38429886,0,0,0.38429886,68.128825,24.352408)"
     style="display:inline">
    <path
       d="m 313.32934,296.90276 c 2.66472,-21.23413 1.867,-24.35116 18.38493,-20.90911 l 4.19228,0.35104 c 12.70244,0.55254 29.31881,-1.95668 39.08156,-6.29906 21.01572,-9.33808 33.47375,-24.92322 12.75675,-20.8311 -47.26584,9.33807 -50.51443,-5.98704 -50.51443,-5.98704 C 387.14063,172.32244 408.00359,82.312195 389.99206,60.278488 340.87279,0.18389789 255.84926,28.601173 254.42694,29.335738 l -0.45487,0.08126 c -9.33843,-1.855915 -19.79028,-2.964263 -31.53206,-3.146279 -21.38912,-0.33803 -37.61851,5.369477 -49.93057,14.307771 0,0 -151.679096,-59.834566 -144.621807,75.24743 1.500395,28.73581 43.015855,217.43782 92.535687,160.44076 18.09979,-20.84085 35.58856,-38.46392 35.58856,-38.46392 8.68328,5.52224 19.08421,8.34349 29.98754,7.3294 l 0.84524,-0.68906 c -0.26477,2.58723 -0.14936,5.11921 0.33606,8.11597 -12.75336,13.64797 -9.00576,16.04343 -34.50909,21.06837 -25.80544,5.08996 -10.64534,14.15501 -0.7502,16.52447 11.99977,2.87326 39.75708,6.94262 58.51542,-18.19511 l -0.7468,2.86675 c 5.00358,3.83534 4.66751,27.5527 5.37358,44.49645 0.70947,16.94701 1.89417,32.75967 5.50258,42.08474 3.60842,9.32183 7.8652,33.33497 41.38308,26.45735 28.0119,-5.7335 49.42817,-14.00549 51.38005,-90.95933"
       id="path10450"
       style="display:inline;stroke-width:3.32164" />
    <path
       d="m 251.03578,404.63033 c -14.82404,0 -24.47817,-5.48973 -30.34057,-10.79095 -8.84962,-7.99571 -12.35959,-18.29588 -14.45743,-24.44868 l -0.90635,-2.56772 c -4.22283,-10.91447 -5.65533,-26.62962 -6.50397,-46.86592 -0.129,-3.03902 -0.21726,-6.16905 -0.3157,-9.48759 -0.0713,-2.42797 -0.15954,-5.47349 -0.28854,-8.65877 a 63.817715,61.105429 0 0 1 -16.8438,5.09645 c -10.45185,1.70965 -21.68784,1.1571 -33.40246,-1.6479 -8.26575,-1.97942 -16.85399,-6.08129 -21.74894,-12.4161 -14.26734,11.96431 -27.876125,10.34242 -35.289843,7.97296 C 77.85894,296.63949 66.1545,284.9027 55.152733,264.94267 47.314696,250.72266 39.734645,232.19601 32.619648,209.87303 20.229507,170.99958 12.357524,130.05569 11.658245,116.61249 9.4585702,74.537504 21.288609,44.446331 46.812301,27.184047 87.075169,-0.04687261 148.07879,15.9673 170.31995,23.238196 185.2628,14.61518 202.84322,10.419057 222.70818,10.721334 c 10.6691,0.165765 20.82902,1.062845 30.26589,2.674988 9.84422,-2.964264 29.28826,-7.2188916 51.54638,-6.9523679 41.00967,0.4680416 74.99261,15.7704009 98.2691,44.2526819 16.61297,20.320806 8.39814,62.993844 2.02655,86.623444 -8.96842,33.23746 -24.68184,68.5876 -43.9833,99.36133 5.2412,0.0358 12.83483,-0.56555 23.62953,-2.70099 21.29746,-4.20912 27.52648,6.72485 29.21697,11.61978 6.77214,19.63825 -22.66548,34.47907 -31.84776,38.56143 -11.76554,5.22972 -30.9482,8.415 -46.65822,7.72594 l -0.6857,-0.0423 -4.12778,-0.34778 -0.40735,3.2958 -0.39377,3.22103 c -1.0557,39.00022 -6.87398,63.69916 -18.84659,80.01886 -12.54969,17.10952 -29.99093,21.9037 -45.35471,25.05648 -5.2412,1.07259 -10.00376,1.54063 -14.32164,1.54063 z m -31.196,-141.94336 c 9.56926,7.33265 10.40772,21.13013 11.15791,46.91467 0.095,3.21779 0.18331,6.26331 0.30212,9.10731 0.35982,8.61327 1.20507,28.78131 4.50458,37.30356 0.46505,1.20586 0.88259,2.42797 1.32388,3.72484 3.67631,10.77795 5.51955,16.18318 21.41627,12.92964 13.34402,-2.73999 20.20442,-5.19721 25.57461,-12.51686 7.80409,-10.64144 12.1695,-32.04785 12.97061,-63.6244 l 16.23618,0.37703 -16.12416,-1.85266 0.47524,-3.85484 c 1.54453,-12.70863 2.65794,-21.88745 11.52793,-27.95899 7.11839,-4.86893 15.22799,-4.39764 21.68783,-3.28279 -7.09802,-5.13546 -9.06007,-11.15824 -9.58284,-13.62846 l -1.35443,-6.38682 3.80531,-5.40523 c 21.91867,-31.13777 39.9913,-69.40667 49.59111,-104.99733 9.86459,-36.568998 6.85701,-55.989474 3.84943,-59.6623 C 337.38658,21.161262 268.34464,41.274049 261.13459,43.555752 l -1.21865,0.630556 -6.1102,1.088846 -3.12979,-0.620805 c -8.62897,-1.716152 -18.2152,-2.665237 -28.49053,-2.824501 -16.14453,-0.260023 -29.16945,3.393302 -39.84873,11.151741 l -7.41033,5.379228 -8.59842,-3.390051 C 147.95659,47.777877 93.996675,33.317342 65.523112,52.627308 49.718044,63.34676 42.518183,84.350126 44.120415,115.0556 c 0.529551,10.13766 7.722623,48.51382 19.590002,85.73287 16.399116,51.43582 31.301231,68.52259 37.523463,70.50852 1.08625,0.35103 3.90374,-1.74541 6.70764,-4.96969 a 918.93436,879.87918 0 0 1 36.30142,-39.23099 l 9.40293,-9.47459 11.36838,7.23189 c 4.58266,2.91551 9.63715,4.56991 14.82744,4.88193 l 27.11234,-22.14096 -3.9275,38.37941 c -0.0883,0.86132 -0.13239,2.03468 0.22064,4.21237 l 1.18131,7.27415 -5.12579,5.48649 -0.59065,0.63705 14.89533,6.58184 z"
       id="path10452"
       style="display:inline;stroke-width:3.32164" />
    <path
       fill="#336791"
       d="m 387.74486,249.21453 c -47.26923,9.33807 -50.51783,-5.98704 -50.51783,-5.98704 C 387.13724,172.31919 408.0002,82.305695 389.99546,60.278488 340.87618,0.18714818 255.84587,28.604423 254.42694,29.342239 l -0.45826,0.07801 c -9.33844,-1.855915 -19.79028,-2.961013 -31.53885,-3.14303 -21.38912,-0.334779 -37.61172,5.369477 -49.92379,14.307772 0,0 -151.682485,-59.831317 -144.628591,75.247429 1.500395,28.73906 43.015855,217.44107 92.535691,160.44401 18.09979,-20.84085 35.58516,-38.46392 35.58516,-38.46392 8.68668,5.52224 19.08421,8.34349 29.98414,7.3294 l 0.84864,-0.68906 c -0.26477,2.58723 -0.14257,5.11921 0.33946,8.11597 -12.75676,13.64797 -9.00916,16.04343 -34.51249,21.06838 -25.80544,5.08995 -10.64533,14.155 -0.7468,16.52446 11.99637,2.87326 39.75708,6.94262 58.51202,-18.19511 l -0.7502,2.86675 c 5.00019,3.83534 8.51016,24.93622 7.9229,44.06417 -0.59065,19.12795 -0.98442,32.26236 2.95666,42.52027 3.93769,10.25792 7.8618,33.33497 41.38647,26.45736 28.01191,-5.74651 42.52704,-20.64259 44.5502,-45.4878 1.4325,-17.66532 4.67431,-15.05208 4.88137,-30.84524 l 2.60363,-7.47566 c 3.00079,-23.94488 0.47524,-31.66756 17.73657,-28.076 l 4.19228,0.35104 c 12.70245,0.55254 29.3256,-1.95668 39.08496,-6.29906 21.01232,-9.33158 33.47375,-24.91997 12.75675,-20.82785 z"
       id="path10454"
       style="display:inline;stroke-width:3.32164" />
    <path
       fill="#ffffff"
       d="m 252.72966,395.04523 c -27.94401,0 -36.79702,-21.18863 -40.41902,-29.8539 -5.3023,-12.69888 -6.44626,-61.97976 -5.26496,-102.39385 a 5.3973493,5.1679592 0 0 1 5.56708,-5.03795 5.4109275,5.1809603 0 0 1 5.26157,5.32723 c -1.36122,46.61239 0.57028,88.85314 4.49439,98.25298 6.12379,14.65555 15.4113,27.47469 41.66822,22.08896 24.92625,-5.1192 34.26129,-14.16801 38.41962,-37.24831 3.19089,-17.71082 9.50137,-68.0968 10.27873,-78.03943 a 5.407533,5.1777101 0 0 1 5.80469,-4.78443 5.4211112,5.1907112 0 0 1 4.99679,5.558 c -0.81129,10.35217 -7.09123,60.64063 -10.40432,79.03077 -4.90853,27.26017 -17.60079,39.62427 -46.82455,45.6243 -4.96624,1.01734 -9.47761,1.47238 -13.57824,1.47563 z M 101.21011,291.55279 a 22.777493,21.809438 0 0 1 -7.182884,-1.1376 C 75.876517,284.61667 58.588027,256.31316 42.640387,206.28146 30.501443,168.19783 22.809372,128.44679 22.133855,115.5269 20.134459,77.225493 30.433552,50.127836 52.75278,34.991241 96.905812,5.0365791 171.18216,33.561114 174.32213,34.789723 a 5.4177194,5.1874635 0 0 1 -4.09723,9.604603 C 169.50865,44.114801 98.284003,16.792874 58.99198,43.467994 39.907767,56.423645 31.14641,80.495284 32.948921,115.0101 c 0.566891,10.88522 7.753173,49.68066 20.048267,88.24209 14.236782,44.66547 30.439013,72.84872 44.455148,77.32437 2.199675,0.70206 8.893744,2.8375 18.463004,-8.18098 a 832.59035,797.20483 0 0 1 34.71616,-37.46282 5.4177166,5.1874609 0 0 1 7.82107,7.17663 c -0.16294,0.16252 -16.45343,16.46922 -34.20698,36.92003 -8.40832,9.68261 -16.467,12.52337 -23.03548,12.52337 z m 235.68086,-43.70014 a 5.4177166,5.1874609 0 0 1 -4.48761,-8.08346 C 382.8567,168.08407 400.56611,81.46712 385.39922,62.907971 366.30822,39.551396 339.35203,27.353062 305.27405,26.647749 c -25.23176,-0.520046 -45.28682,5.649002 -48.56596,6.724848 l -0.82488,0.321778 c -3.29612,0.991339 -5.82507,-0.737815 -6.77894,-2.759495 a 5.4312949,5.2004621 0 0 1 2.14197,-6.581835 c 0.15615,-0.08776 0.65176,-0.289275 1.45627,-0.57205 l -0.0713,0.0195 0.0713,-0.02275 c 5.57047,-1.953423 25.93103,-7.800693 51.14922,-7.524418 37.70676,0.383534 68.85524,14.304521 90.07123,40.264577 10.03771,12.282842 10.06148,40.579856 0.0645,77.639646 -10.19047,37.78461 -29.36633,78.39047 -52.60549,111.41015 -1.03873,1.48538 -2.74959,2.28495 -4.491,2.28495 z m 2.57987,33.18545 c -8.6154,0 -16.33802,-1.1636 -20.96141,-3.81584 -4.75238,-2.72699 -5.65873,-6.43232 -5.77754,-8.39874 -1.29672,-21.80944 11.26994,-25.60578 17.67887,-27.33818 -0.89277,-1.29362 -2.16234,-2.81475 -3.47603,-4.38464 -3.73741,-4.4724 -8.85641,-10.59594 -12.80088,-19.75526 -0.61781,-1.43012 -2.55271,-4.75517 -4.79312,-8.60676 -12.14913,-20.86035 -37.42841,-64.26796 -21.18884,-86.49669 7.51555,-10.28716 22.48216,-14.33702 44.53322,-12.07807 -6.487,-18.923181 -37.37749,-78.117441 -110.67621,-79.268043 -22.04427,-0.351031 -40.12369,6.139795 -53.70872,19.274212 -30.41525,29.411864 -29.31541,82.628841 -29.29844,83.161891 A 5.4161989,5.1860077 0 1 1 128.1731,133.605 c -0.0679,-2.36296 -1.20168,-58.209419 32.43162,-90.735059 15.74057,-15.221103 36.46096,-22.73577 61.58409,-22.342486 46.89244,0.737816 77.07687,23.564594 94.13792,42.582034 18.59879,20.727092 27.71658,43.589621 28.46678,51.221301 0.5601,5.675 -3.69329,6.80936 -4.55211,6.97837 l -1.95526,0.0422 c -21.64032,-3.31854 -35.52407,-1.01409 -41.26427,6.83861 -12.3528,16.90475 11.56187,57.96565 21.77271,75.50096 2.60702,4.4724 4.4876,7.70643 5.34982,9.70211 3.35383,7.78769 7.72941,13.02066 11.24278,17.22653 3.09244,3.69883 5.77075,6.90687 6.72802,10.6707 0.44469,0.74757 6.75517,9.68586 44.20055,2.28495 9.38596,-1.85266 15.01414,-0.26977 16.73518,4.71292 3.38438,9.79962 -15.60479,21.23089 -26.11774,25.9048 -9.4199,4.19288 -24.4544,6.84511 -37.46235,6.84511 z m -15.94085,-13.06941 c 1.18809,1.14735 7.13196,3.12678 19.44064,2.61973 10.94406,-0.44854 22.48556,-2.72699 29.41046,-5.80501 8.8564,-3.93935 14.76973,-8.34349 17.83162,-11.35001 l -1.69728,0.29903 c -23.94183,4.73242 -40.87728,4.10186 -50.33453,-1.87542 a 20.917274,20.02828 0 0 1 -1.83306,-1.30337 c -1.02516,0.38679 -1.97224,0.64031 -2.64775,0.82233 -5.36341,1.43988 -10.91012,2.93176 -10.1701,16.59272 z m -154.66292,28.97633 c -5.94726,0 -12.20683,-0.77682 -18.59879,-2.30771 -6.62278,-1.58614 -17.78749,-6.36081 -17.61776,-14.20376 0.19349,-8.79853 13.55787,-11.43777 18.58861,-12.42911 18.17447,-3.58506 19.35917,-5.02169 25.03827,-11.92856 1.65654,-2.01192 3.71704,-4.5179 6.52774,-7.52116 4.17191,-4.4724 8.7308,-6.73785 13.55108,-6.73785 3.35722,0 6.1102,1.08884 7.92969,1.81366 5.7979,2.3012 10.63515,7.8657 12.62436,14.51904 1.79572,6.00328 0.9369,11.7823 -2.41013,16.27094 -10.98819,14.73356 -26.7695,22.52451 -45.63307,22.52451 z m -24.5155,-16.06618 c 1.63278,1.20911 4.90514,2.8245 8.5475,3.69558 5.53652,1.32611 10.90672,1.99892 15.9714,1.99892 15.43167,0 27.82181,-6.11704 36.82078,-18.18211 1.8772,-2.51572 1.3137,-5.71076 0.8113,-7.39116 -1.05231,-3.52006 -3.66612,-6.72159 -6.35801,-7.79094 -1.45966,-0.57855 -2.67151,-1.02059 -3.78493,-1.02059 -0.59744,0 -2.41693,0 -5.47882,3.27954 a 139.67254,133.73638 0 0 0 -6.08984,7.02713 c -7.07426,8.60026 -10.31606,11.51902 -31.36233,15.66964 -5.13597,1.00759 -7.77015,2.03468 -9.07705,2.71399 z m 41.64785,-23.92213 a 5.4177166,5.1874609 0 0 1 -5.34644,-4.40089 27.896488,26.710873 0 0 1 -0.27156,-2.59698 c -13.79549,-0.24702 -27.10556,-5.91552 -37.21116,-16.01092 -12.77712,-12.76389 -18.592,-30.44871 -15.95103,-48.51706 2.8684,-19.622 1.79572,-36.94278 1.21864,-46.24836 -0.15954,-2.58723 -0.27496,-4.45615 -0.26817,-5.74976 0.0102,-1.6414 0.0441,-5.99354 15.23818,-13.36844 5.40414,-2.62298 16.23957,-7.19939 28.0764,-8.37274 19.61037,-1.94043 32.53685,6.42257 36.40665,23.55159 10.44506,46.24511 0.82827,66.69917 -6.19507,81.6375 -1.30691,2.78225 -2.54253,5.40848 -3.53034,7.95346 l -0.87241,2.2427 c -3.71025,9.52659 -6.91811,17.75633 -5.93369,23.90262 a 5.4143221,5.1842106 0 0 1 -4.53173,5.91228 z m -46.96373,-122.08734 0.21046,3.70207 c 0.59744,9.66636 1.71086,27.65346 -1.30351,48.2993 -2.17591,14.90257 2.57647,29.44761 13.04529,39.90054 8.27254,8.26224 19.15889,12.82239 30.34736,12.82239 h 0.23083 c 1.25259,-5.0542 3.33346,-10.39117 5.57387,-16.14093 l 0.86561,-2.2297 c 1.11681,-2.87326 2.42372,-5.6555 3.8087,-8.60027 6.75856,-14.37927 15.17368,-32.27861 5.48221,-75.18568 -1.91793,-8.4995 -6.57187,-13.41719 -14.21981,-15.03908 -15.71002,-3.3218 -39.1223,7.99246 -44.04101,12.47136 z m 32.6896,-2.20045 c -0.27156,1.83316 3.50658,6.7281 8.43548,7.38141 4.91872,0.6598 9.12797,-3.16904 9.39614,-5.0022 0.26817,-1.83316 -3.50658,-3.85484 -8.43548,-4.5114 -4.9255,-0.65656 -9.13476,0.29903 -9.39614,2.13219 z m 9.56587,9.18532 -1.38158,-0.091 c -3.05511,-0.40629 -6.14416,-2.2492 -8.25897,-4.93394 -0.7434,-0.94258 -1.95526,-2.76925 -1.71425,-4.40089 0.34285,-2.39221 3.39117,-3.82559 8.14694,-3.82559 1.0625,0 2.16913,0.0748 3.28254,0.22427 2.60023,0.34453 5.01377,1.06284 6.79591,2.01518 3.08905,1.65114 3.31648,3.49406 3.17731,4.44639 -0.38019,2.64249 -4.76936,6.56559 -10.0479,6.56559 z m -7.77014,-8.87979 c 0.15275,1.1311 3.07886,4.86243 6.88756,5.36622 l 0.88598,0.0585 c 3.51676,0 6.14415,-2.64899 6.45305,-3.51681 -0.32587,-0.59156 -2.58665,-2.06069 -6.87398,-2.63274 a 19.766519,18.926432 0 0 0 -2.78693,-0.19176 c -2.75638,0 -4.21944,0.5948 -4.56568,0.91658 z m 148.01975,-4.04661 c 0.26817,1.83316 -3.50658,6.7281 -8.43208,7.38465 -4.92211,0.65656 -9.13476,-3.16903 -9.40633,-5.00219 -0.25798,-1.83316 3.51677,-3.85809 8.43888,-4.5114 4.92211,-0.65981 9.12797,0.29902 9.39953,2.12894 z m -9.56926,8.32074 c -4.7388,0 -8.82925,-3.52982 -9.16531,-5.82127 -0.39037,-2.74974 4.33825,-4.83968 9.20605,-5.48649 1.07268,-0.14301 2.13517,-0.21452 3.15694,-0.21452 4.20246,0 6.986,1.17986 7.26435,3.08453 0.17991,1.23186 -0.8079,3.13328 -2.50858,4.84943 -1.1236,1.12785 -3.48281,3.08127 -6.69746,3.50706 z m 3.20107,-9.79312 c -0.9369,0 -1.91453,0.0682 -2.90574,0.19826 -4.89156,0.65331 -7.81088,2.53198 -7.66831,3.53957 0.16294,1.10835 3.28593,4.32938 7.37638,4.32938 l 1.00818,-0.0683 c 2.67152,-0.35428 4.6777,-2.02493 5.63497,-2.98702 1.50379,-1.51138 2.10123,-2.93501 2.02994,-3.4193 -0.095,-0.64356 -1.90095,-1.59264 -5.47542,-1.59264 z m 13.45943,106.74923 a 5.4109275,5.1809603 0 0 1 -4.4944,-8.07047 c 11.53471,-16.49521 9.4233,-33.31546 7.38317,-49.58315 -0.8724,-6.92962 -1.76857,-14.0965 -1.53774,-20.97411 0.23762,-7.07588 1.17792,-12.9134 2.08426,-18.55915 1.07608,-6.6891 2.09445,-13.00766 1.67352,-20.50933 a 5.4154094,5.1852517 0 1 1 10.81507,-0.55905 c 0.48202,8.57427 -0.66873,15.7249 -1.78215,22.64477 -0.85882,5.34022 -1.7482,10.86246 -1.96205,17.31428 -0.20707,6.09105 0.60423,12.55912 1.46305,19.40423 2.17252,17.29804 4.63358,36.90378 -9.13476,56.59078 a 5.4177166,5.1874609 0 0 1 -4.50797,2.3012 z"
       id="path10456"
       style="stroke-width:3.32164" />
  </g>
  <g
     id="g12050">
    <text
       x="49.272018"
       y="282.87097"
       text-anchor="middle"
       font-family="Inter, 'Segoe UI', Roboto, Helvetica, Arial, sans-serif"
       font-weight="900"
       fill="#d32f2f"
       font-size="78.9747px"
       id="text10464"
       style="display:inline;stroke-width:2.82051"
       transform="scale(1.0718229,0.93298996)">+</text>
    <text
       xml:space="preserve"
       id="text11878"
       style="font-style:normal;font-variant:normal;font-weight:bold;font-stretch:normal;font-size:32px;font-family:'Ubuntu Mono';-inkscape-font-specification:'Ubuntu Mono Bold';white-space:pre;shape-inside:url(#rect11880);display:inline;fill:#000000"
       transform="matrix(1.2936278,0,0,1.2612961,874.28713,139.79992)"><tspan
         x="-653.73242"
         y="63.811848"
         id="tspan12150"><tspan
   style="font-family:sans-serif;-inkscape-font-specification:'sans-serif Bold'"
   id="tspan12148">PostgreSQL</tspan>
</tspan></text>
    <text
       xml:space="preserve"
       id="text12036"
       style="font-style:normal;font-variant:normal;font-weight:bold;font-stretch:normal;font-size:32px;font-family:'Ubuntu Mono';-inkscape-font-specification:'Ubuntu Mono Bold';white-space:pre;shape-inside:url(#rect12038);display:inline;fill:#000000"
       transform="matrix(1.2936278,0,0,1.2612961,928.46358,125.46936)"><tspan
         x="-655.41992"
         y="109.10482"
         id="tspan12154"><tspan
           style="font-family:sans-serif;-inkscape-font-specification:'sans-serif Bold'"
           id="tspan12152">pgAdmin</tspan></tspan></text>
  </g>
</svg>
